<?xml version="1.0" encoding="utf-8"?>
<!-- Generator: Adobe Illustrator 16.0.0, SVG Export Plug-In . SVG Version: 6.00 Build 0)  -->
<!DOCTYPE svg PUBLIC "-//W3C//DTD SVG 1.1//EN" "http://www.w3.org/Graphics/SVG/1.1/DTD/svg11.dtd">
<svg version="1.1" xmlns="http://www.w3.org/2000/svg" xmlns:xlink="http://www.w3.org/1999/xlink" x="0px" y="0px" width="300px"
	 height="1000px" viewBox="0 0 300 1000" enable-background="new 0 0 300 1000" xml:space="preserve">
<g id="Layer_1" display="none">
	<rect display="inline" fill="#FF0000" width="300" height="1000"/>
</g>
<g id="Layer_2" display="none">
	<rect x="0.5" y="0.5" display="inline" fill="none" stroke="#000000" stroke-miterlimit="10" width="90" height="90"/>
	<rect x="0.5" y="90.5" display="inline" fill="none" stroke="#000000" stroke-miterlimit="10" width="90" height="90"/>
	<rect x="0.5" y="180.5" display="inline" fill="none" stroke="#000000" stroke-miterlimit="10" width="90" height="90"/>
	<rect x="0.5" y="270.5" display="inline" fill="none" stroke="#000000" stroke-miterlimit="10" width="90" height="90"/>
	<rect x="0.5" y="360.5" display="inline" fill="none" stroke="#000000" stroke-miterlimit="10" width="90" height="90"/>
	<rect x="0.5" y="450.5" display="inline" fill="none" stroke="#000000" stroke-miterlimit="10" width="90" height="90"/>
	<rect x="0.5" y="540.5" display="inline" fill="none" stroke="#000000" stroke-miterlimit="10" width="90" height="90"/>
	<rect x="0.5" y="630.5" display="inline" fill="none" stroke="#000000" stroke-miterlimit="10" width="90" height="90"/>
	<rect x="90.5" y="0.5" display="inline" fill="none" stroke="#000000" stroke-miterlimit="10" width="90" height="90"/>
	<rect x="180.5" y="0.5" display="inline" fill="none" stroke="#000000" stroke-miterlimit="10" width="40" height="40"/>
	<rect x="220.5" y="0.5" display="inline" fill="none" stroke="#000000" stroke-miterlimit="10" width="40" height="40"/>
	<rect x="260.5" y="0.5" display="inline" fill="none" stroke="#000000" stroke-miterlimit="10" width="25" height="25"/>
	<rect x="180.5" y="40.5" display="inline" fill="none" stroke="#000000" stroke-miterlimit="10" width="40" height="40"/>
	<rect x="180.5" y="80.5" display="inline" fill="none" stroke="#000000" stroke-miterlimit="10" width="40" height="40"/>
	<rect x="220.5" y="40.5" display="inline" fill="none" stroke="#000000" stroke-miterlimit="10" width="40" height="40"/>
	<rect x="90.5" y="90.5" display="inline" fill="none" stroke="#000000" stroke-miterlimit="10" width="90" height="90"/>
	<rect x="90.5" y="180.5" display="inline" fill="none" stroke="#000000" stroke-miterlimit="10" width="90" height="90"/>
	<rect x="180.5" y="180.5" display="inline" fill="none" stroke="#000000" stroke-miterlimit="10" width="90" height="90"/>
	<rect x="180.5" y="270.5" display="inline" fill="none" stroke="#000000" stroke-miterlimit="10" width="90" height="90"/>
	<rect x="180.5" y="360.5" display="inline" fill="none" stroke="#000000" stroke-miterlimit="10" width="90" height="90"/>
	<rect x="180.5" y="450.5" display="inline" fill="none" stroke="#000000" stroke-miterlimit="10" width="90" height="90"/>
	<rect x="180.5" y="540.5" display="inline" fill="none" stroke="#000000" stroke-miterlimit="10" width="90" height="90"/>
	<rect x="90.5" y="270.5" display="inline" fill="none" stroke="#000000" stroke-miterlimit="10" width="90" height="90"/>
	<rect x="90.5" y="360.5" display="inline" fill="none" stroke="#000000" stroke-miterlimit="10" width="90" height="90"/>
	<rect x="90.5" y="450.5" display="inline" fill="none" stroke="#000000" stroke-miterlimit="10" width="90" height="90"/>
	<rect x="90.5" y="540.5" display="inline" fill="none" stroke="#000000" stroke-miterlimit="10" width="90" height="90"/>
	<rect x="90.5" y="630.5" display="inline" fill="none" stroke="#000000" stroke-miterlimit="10" width="90" height="90"/>
	<rect x="29.939" y="770.852" display="inline" fill="none" stroke="#000000" stroke-miterlimit="10" width="30" height="30"/>
	<rect x="59.939" y="770.852" display="inline" fill="none" stroke="#000000" stroke-miterlimit="10" width="30" height="30"/>
	<rect x="89.939" y="770.852" display="inline" fill="none" stroke="#000000" stroke-miterlimit="10" width="30" height="30"/>
	<rect x="-0.5" y="770.852" display="inline" fill="none" stroke="#000000" stroke-miterlimit="10" width="30" height="30"/>
	
		<rect x="19.789" y="800.852" display="inline" fill="none" stroke="#000000" stroke-miterlimit="10" width="19.996" height="19.996"/>
	
		<rect x="39.785" y="800.852" display="inline" fill="none" stroke="#000000" stroke-miterlimit="10" width="19.996" height="19.996"/>
	
		<rect x="59.78" y="800.852" display="inline" fill="none" stroke="#000000" stroke-miterlimit="10" width="19.996" height="19.996"/>
	
		<rect x="-0.5" y="800.852" display="inline" fill="none" stroke="#000000" stroke-miterlimit="10" width="19.996" height="19.996"/>
	<rect x="99.5" y="720.5" display="inline" fill="none" stroke="#000000" stroke-miterlimit="10" width="50" height="50"/>
	<rect x="-0.5" y="720.5" display="inline" fill="none" stroke="#000000" stroke-miterlimit="10" width="50" height="50"/>
	<rect x="149.5" y="720.5" display="inline" fill="none" stroke="#000000" stroke-miterlimit="10" width="50" height="50"/>
	<rect x="199.5" y="720.5" display="inline" fill="none" stroke="#000000" stroke-miterlimit="10" width="50" height="50"/>
	<rect x="-0.5" y="830.5" display="inline" fill="none" stroke="#000000" stroke-miterlimit="10" width="50" height="50"/>
	<rect x="229.5" y="800.5" display="inline" fill="none" stroke="#000000" stroke-miterlimit="10" width="70" height="30"/>
	<rect x="229.5" y="830.5" display="inline" fill="none" stroke="#000000" stroke-miterlimit="10" width="70" height="30"/>
	<rect x="278.5" y="860.5" display="inline" fill="none" stroke="#000000" stroke-miterlimit="10" width="21" height="30"/>
	<rect x="278.5" y="890.5" display="inline" fill="none" stroke="#000000" stroke-miterlimit="10" width="21" height="30"/>
	<rect x="49.5" y="720.5" display="inline" fill="none" stroke="#000000" stroke-miterlimit="10" width="50" height="50"/>
</g>
<g id="Layer_3">
	<g>
		<g>
			<path fill="#FFFFFF" d="M112.652,117.9v15.3h43.2v-15.3H112.652z M112.652,152.1h27.9v-15.3h-27.9V152.1z M143.252,152.1h12.6
				v-15.3h-12.6V152.1z"/>
		</g>
	</g>
	<g>
		<g>
			<path fill="#FFFFFF" d="M152.729,237.45h-25.513c-0.705,0-1.276,0.566-1.276,1.263c0,0.698,0.571,1.263,1.276,1.263h25.513
				c0.706,0,1.276-0.565,1.276-1.263C154.006,238.016,153.436,237.45,152.729,237.45z M152.729,223.553h-25.513
				c-0.705,0-1.276,0.565-1.276,1.263s0.571,1.263,1.276,1.263h25.513c0.706,0,1.276-0.565,1.276-1.263
				S153.436,223.553,152.729,223.553z M127.217,212.182h25.513c0.706,0,1.276-0.565,1.276-1.263c0-0.698-0.57-1.263-1.276-1.263
				h-25.513c-0.705,0-1.276,0.565-1.276,1.263C125.94,211.616,126.512,212.182,127.217,212.182z M117.648,234.291
				c-2.288,0-4.146,1.839-4.146,4.106s1.858,4.106,4.146,4.106c2.29,0,4.146-1.838,4.146-4.106S119.938,234.291,117.648,234.291z
				 M117.648,220.394c-2.288,0-4.146,1.839-4.146,4.106s1.858,4.106,4.146,4.106c2.29,0,4.146-1.839,4.146-4.106
				S119.938,220.394,117.648,220.394z M117.648,206.497c-2.288,0-4.146,1.838-4.146,4.106s1.858,4.106,4.146,4.106
				c2.29,0,4.146-1.838,4.146-4.106S119.938,206.497,117.648,206.497z"/>
		</g>
	</g>
	<path fill-rule="evenodd" clip-rule="evenodd" fill="#FFFFFF" d="M108,298v32h21.782l4.936,5.88l4.936-5.88H161v-32H108z M143,323
		h-26v-2h26V323z M153,316h-36v-3h36V316z M153,308h-36v-3h36V308z"/>
	<path fill="#FFFFFF" d="M47.677,205.704c-9.324,0-16.883,7.445-16.883,16.631c0,4.374,1.727,8.341,4.527,11.309l-9.468,9.148
		l2.543,2.504l9.635-9.32c2.736,1.881,6.057,2.991,9.646,2.991c9.323,0,16.883-7.446,16.883-16.635
		C64.56,213.15,57,205.704,47.677,205.704 M47.677,235.272c-7.259,0-13.165-5.802-13.165-12.939c0-7.132,5.906-12.935,13.165-12.935
		c7.255,0,13.162,5.803,13.162,12.935C60.838,229.47,54.935,235.272,47.677,235.272"/>
	<path fill="#FFFFFF" d="M136.723,386.704c-9.324,0-16.883,7.445-16.883,16.631c0,4.373,1.727,8.341,4.527,11.309l-9.468,9.148
		l2.543,2.505l9.635-9.32c2.736,1.881,6.057,2.991,9.646,2.991c9.323,0,16.883-7.446,16.883-16.636
		C153.605,394.15,146.046,386.704,136.723,386.704 M136.723,416.272c-7.259,0-13.165-5.803-13.165-12.939
		c0-7.131,5.906-12.935,13.165-12.935c7.255,0,13.162,5.803,13.162,12.935C149.884,410.47,143.98,416.272,136.723,416.272"/>
	<path fill="#FFFFFF" d="M150.018,492.434l-3.478-0.58c-0.255-1.032-0.62-2.021-1.099-2.942l2.224-2.761
		c0.472-0.583,0.45-1.422-0.05-1.983l-1.382-1.559c-0.499-0.563-1.331-0.68-1.964-0.281l-2.976,1.871
		c-1.308-0.914-2.79-1.591-4.387-1.978l-0.581-3.496c-0.124-0.742-0.766-1.285-1.515-1.285h-2.082c-0.751,0-1.393,0.543-1.513,1.285
		l-0.586,3.496c-1.32,0.325-2.559,0.845-3.689,1.534l-2.829-2.018c-0.61-0.438-1.446-0.369-1.978,0.163l-1.471,1.472
		c-0.531,0.532-0.598,1.371-0.162,1.98l2.025,2.832c-0.682,1.123-1.201,2.354-1.523,3.665l-3.517,0.584
		c-0.74,0.123-1.281,0.765-1.281,1.515v2.084c0,0.753,0.541,1.391,1.281,1.514l3.517,0.585c0.265,1.076,0.653,2.109,1.163,3.064
		l-2.215,2.744c-0.473,0.581-0.452,1.42,0.046,1.98l1.383,1.558c0.501,0.564,1.334,0.681,1.967,0.279l3.015-1.896
		c1.274,0.874,2.721,1.521,4.27,1.896l0.585,3.496c0.119,0.738,0.761,1.283,1.513,1.283h2.083c0.75,0,1.392-0.545,1.515-1.283
		l0.584-3.496c1.302-0.318,2.524-0.833,3.644-1.51l2.947,2.104c0.611,0.438,1.446,0.37,1.977-0.164l1.473-1.473
		c0.532-0.531,0.604-1.366,0.164-1.978l-2.097-2.941c0.684-1.123,1.201-2.358,1.524-3.675l3.476-0.58
		c0.739-0.122,1.284-0.765,1.284-1.514v-2.084C151.301,493.198,150.757,492.557,150.018,492.434 M133.805,501.573
		c-3.632,0-6.579-2.948-6.579-6.581s2.948-6.581,6.579-6.581c3.633,0,6.581,2.948,6.581,6.581S137.438,501.573,133.805,501.573"/>
	<path fill="#FFFFFF" d="M153.352,571.954v27.749h-39.375v-27.749H153.352 M156.164,569.178h-45v33.301h45V569.178L156.164,569.178z
		 M119.602,594.153h28.125l-5.625-16.65l-8.438,11.101l-5.625-5.55L119.602,594.153z M122.414,577.503
		c-1.555,0-2.813,1.243-2.813,2.775s1.259,2.775,2.813,2.775s2.813-1.243,2.813-2.775S123.969,577.503,122.414,577.503z"/>
	<path fill-rule="evenodd" clip-rule="evenodd" fill="#FFFFFF" d="M35.998,398.441c0-4.375,3.676-7.921,8.209-7.921
		s8.209,3.546,8.209,7.921c0,4.375-3.676,7.921-8.209,7.921S35.998,402.816,35.998,398.441z M30.251,399.431
		c0,3.313,4.163,10.297,4.163,10.297l9.793,15.843l9.229-15.843c0,0,4.727-7.033,4.727-10.297c0-7.437-6.247-13.466-13.955-13.466
		S30.251,391.995,30.251,399.431z"/>
	<path fill-rule="evenodd" clip-rule="evenodd" fill="#FFFFFF" d="M125.456,669.173c0-4.376,3.675-7.921,8.209-7.921
		c4.533,0,8.209,3.545,8.209,7.921c0,4.375-3.676,7.92-8.209,7.92C129.131,677.093,125.456,673.548,125.456,669.173z
		 M119.708,670.162c0,3.313,4.163,10.297,4.163,10.297l9.793,15.844l9.229-15.844c0,0,4.727-7.032,4.727-10.297
		c0-7.436-6.247-13.465-13.955-13.465S119.708,662.727,119.708,670.162z"/>
	<g>
		<g>
			<path fill-rule="evenodd" clip-rule="evenodd" fill="#FFFFFF" d="M30.382,125.019H10.997c-0.629,0-1.138,0.525-1.138,1.174
				v17.611c0,0.65,0.509,1.176,1.138,1.176h19.385c0.628,0,1.138-0.526,1.138-1.176v-17.611
				C31.521,125.544,31.011,125.019,30.382,125.019z M54.9,125.019H35.514c-0.628,0-1.138,0.525-1.138,1.174v17.611
				c0,0.65,0.51,1.176,1.138,1.176H54.9c0.627,0,1.137-0.526,1.137-1.176v-17.611C56.037,125.544,55.528,125.019,54.9,125.019z
				 M79.417,125.019H60.032c-0.628,0-1.138,0.525-1.138,1.174v17.611c0,0.65,0.509,1.176,1.138,1.176h19.386
				c0.628,0,1.137-0.526,1.137-1.176v-17.611C80.555,125.544,80.046,125.019,79.417,125.019z"/>
		</g>
	</g>
	<g>
		<g>
			<path fill-rule="evenodd" clip-rule="evenodd" fill="#FFFFFF" d="M17.306,302v4.5h55.8V302H17.306z M17.306,318.2h55.8v-4.5
				h-55.8V318.2z M17.306,329h40.5v-4.5h-40.5V329z"/>
		</g>
	</g>
	<g>
		<g>
			<path fill-rule="evenodd" clip-rule="evenodd" fill="#FFFFFF" d="M47.717,489.703c-1-0.283-2.053-0.352-3.062-0.606
				c-0.476-0.121-0.982-0.375-1.338-0.718c-3.146-3.021-6.26-6.078-9.385-9.124c-0.223-0.219-0.445-0.435-0.671-0.654
				c-1.991,2.146-3.896,4.197-5.868,6.321c0.279,0.272,0.525,0.513,0.773,0.754c3.124,3.046,6.25,6.089,9.365,9.146
				c0.24,0.236,0.48,0.542,0.571,0.856c0.285,0.995,0.564,2.002,0.719,3.021c0.143,0.938,0.465,1.694,1.402,2.252
				c3.112-3.354,6.215-6.695,9.501-10.235C48.958,490.318,48.369,489.89,47.717,489.703z M39.999,491.085
				c-0.489,0.585-1.279,0.624-1.835,0.089c-0.531-0.511-0.573-1.288-0.099-1.826c0.479-0.539,1.234-0.574,1.779-0.081
				C40.394,489.765,40.459,490.534,39.999,491.085z M52.279,503.131c1.653-1.782,3.307-3.563,4.96-5.344
				c0.408-0.439,0.692-0.934,0.164-1.459c-1.628-1.621-3.274-3.222-4.937-4.806c-0.417-0.399-0.911-0.507-1.37-0.011
				c-1.587,1.721-3.187,3.43-4.771,5.152c-1.739,1.892-3.452,3.806-5.205,5.685c-0.758,0.813-0.785,1.092,0.015,1.856
				c1.467,1.402,2.932,2.809,4.39,4.221c0.799,0.774,1.108,0.789,1.857-0.013c1.639-1.754,3.269-3.518,4.903-5.277L52.279,503.131z
				 M31.293,476.68c-0.747-0.716-1.116-0.72-1.806,0.016c-1.088,1.156-2.162,2.325-3.242,3.489
				c-1.823,1.963-1.823,1.963,0.192,3.779c0.039,0.035,0.104,0.038,0.206,0.073c1.9-2.048,3.814-4.109,5.794-6.241
				C32.006,477.374,31.653,477.023,31.293,476.68z M59.051,508.591c-1.201-1.171-2.408-2.336-3.6-3.518
				c-0.453-0.45-0.956-0.692-1.423-0.181c-0.425,0.467-0.209,0.963,0.229,1.389c2.387,2.316,4.769,4.637,7.143,6.966
				c0.436,0.429,0.928,0.631,1.366,0.178c0.484-0.499,0.226-1.006-0.235-1.447C61.363,510.856,60.21,509.721,59.051,508.591z
				 M67.146,503.021c-1.76-0.481-3.515-0.98-5.272-1.471c-1.087-0.305-2.167-0.656-3.269-0.879c-0.295-0.06-0.755,0.193-0.959,0.451
				c-0.144,0.184,0.017,0.619,0.041,0.931c0.379,0.144,0.615,0.255,0.861,0.323c2.732,0.768,5.466,1.527,8.198,2.299
				c0.586,0.165,1.141,0.204,1.317-0.521C68.24,503.432,67.733,503.182,67.146,503.021z M51.811,509.591
				c-0.08-0.246-0.205-0.479-0.373-0.868c-0.34,0.02-0.837-0.094-0.977,0.088c-0.218,0.281-0.349,0.809-0.246,1.149
				c0.857,2.83,1.779,5.639,2.673,8.457c0.189,0.596,0.473,1.088,1.166,0.846c0.687-0.239,0.601-0.809,0.412-1.395
				C53.574,515.11,52.698,512.349,51.811,509.591z"/>
		</g>
	</g>
	<g>
		<g>
			<path fill="#FFFFFF" d="M36.629,592.919h17.741c0.123,0,0.238-0.057,0.315-0.153c0.076-0.097,0.104-0.222,0.076-0.341
				c-0.015-0.065-0.377-1.575-1.063-3.113c-0.971-2.174-2.087-3.276-3.315-3.276c-0.478,0-0.959,0.171-1.431,0.51
				c-0.008,0.007-0.016,0.013-0.023,0.018c-0.274,0.229-0.539,0.505-0.817,0.796c-0.726,0.76-1.476,1.544-2.449,1.544
				c-0.496,0-1.02-0.199-1.601-0.606c-0.527-0.371-1.112-0.558-1.737-0.558c-1.542,0-3.052,1.153-4.046,2.122
				c-1.028,1.002-1.858,2.151-2.014,2.487c-0.058,0.125-0.048,0.269,0.026,0.385C36.365,592.849,36.492,592.919,36.629,592.919z
				 M65.27,595.937h-3.918v-26.124c0-0.514-0.417-0.93-0.931-0.93H34.298v-3.919c0-0.513-0.417-0.93-0.931-0.93h-2.79
				c-0.514,0-0.93,0.417-0.93,0.93v3.919H25.73c-0.513,0-0.93,0.416-0.93,0.93v2.789c0,0.514,0.417,0.931,0.93,0.931h3.918v26.124
				c0,0.514,0.417,0.93,0.93,0.93h26.124v3.919c0,0.513,0.417,0.93,0.93,0.93h2.79c0.514,0,0.931-0.417,0.931-0.93v-3.919h3.918
				c0.513,0,0.93-0.416,0.93-0.93v-2.789C66.2,596.352,65.783,595.937,65.27,595.937z M56.702,595.937H34.298v-22.404h22.403
				V595.937z M49.988,582.597c1.232,0,2.231-0.998,2.231-2.23c0-1.234-1-2.232-2.231-2.232c-1.232,0-2.232,0.998-2.232,2.232
				C47.755,581.599,48.755,582.597,49.988,582.597z"/>
		</g>
	</g>
	<path fill="#FFFFFF" d="M50.051,686c-0.468,0-0.846-0.535-0.846-1c0-0.463,0.378-1,0.846-1H62v-7H50.051
		c-0.468,0-0.846-1.038-0.846-1.5s0.378-1.5,0.846-1.5H62v-7H50.051c-0.468,0-0.846-0.537-0.846-1s0.378-1,0.846-1H62v-9H35.289
		c-0.563,0-1.241,1.017-1.508,1.515l-8.809,16.671c-0.267,0.496-0.267,1.461,0,1.955l8.809,17.164
		C34.048,693.8,34.727,695,35.289,695H62v-9H50.051z M43.697,687.37c-1.519,0-2.753-1.222-2.753-2.728
		c0-1.505,1.234-2.729,2.753-2.729c1.521,0,2.754,1.224,2.754,2.729C46.451,686.148,45.218,687.37,43.697,687.37z M43.697,678.141
		c-1.519,0-2.753-1.221-2.753-2.727c0-1.505,1.234-2.729,2.753-2.729c1.521,0,2.754,1.224,2.754,2.729
		C46.451,676.92,45.218,678.141,43.697,678.141z M43.697,668.912c-1.519,0-2.753-1.222-2.753-2.727s1.234-2.727,2.753-2.727
		c1.521,0,2.754,1.222,2.754,2.727S45.218,668.912,43.697,668.912z"/>
	<g>
		<g>
			<path fill="#FFFFFF" d="M215.591,14.72c-0.142-0.4-0.319-0.539-0.751-0.534c-2.664,0.023-5.329,0.012-7.995,0.012
				c-0.154,0.003-0.31,0.018-0.544,0.037c0.164,0.193,0.263,0.32,0.368,0.44c2.323,2.682,2.653,6.469,0.866,9.535
				c-2.211,3.789-4.396,7.595-6.588,11.396c-0.082,0.14-0.132,0.302-0.195,0.451c0.292,0,0.584,0,0.876,0.002
				c0.655-0.107,1.313-0.189,1.963-0.318C213.129,33.908,218.831,23.906,215.591,14.72z M202.623,27.981
				c-0.286,0.046-0.488,0.075-0.689,0.115c-3.202,0.647-6.802-0.991-8.437-3.833c-2.196-3.827-4.401-7.643-6.604-11.465
				c-0.099-0.169-0.209-0.331-0.345-0.547c-0.813,1.407-1.345,2.843-1.669,4.354c-0.148,0.686-0.257,1.382-0.383,2.071v2.752
				c0.122,0.652,0.211,1.308,0.369,1.95c1.675,6.728,5.918,10.836,12.656,12.396c0.417,0.1,0.66,0.029,0.895-0.388
				c1.303-2.321,2.65-4.619,3.979-6.925C202.47,28.33,202.526,28.187,202.623,27.981z M192.791,17.357
				c1.186-3.337,4.34-5.512,7.861-5.486c4.374,0.035,8.749,0.026,13.123,0.033c0.129,0,0.26-0.036,0.409-0.058
				c-5.648-9.622-19.321-10.442-26.17-1.73c1.489,2.578,2.984,5.166,4.544,7.871C192.662,17.702,192.729,17.527,192.791,17.357z
				 M194.704,20.04c-0.013,3.187,2.59,5.796,5.788,5.809c3.181,0.016,5.795-2.59,5.809-5.788c0.012-3.183-2.591-5.794-5.789-5.809
				C197.329,14.244,194.715,16.842,194.704,20.04z"/>
		</g>
	</g>
	<g>
		<g>
			<path fill-rule="evenodd" clip-rule="evenodd" fill="#FFFFFF" d="M252.806,12.631c-1.316-1.882-3.061-2.895-5.203-3.281
				c-1.704-0.305-3.349-0.049-4.863,0.716c-1.713,0.866-3.339,0.902-5.016-0.016c-0.361-0.198-0.77-0.378-1.172-0.418
				c-1.023-0.102-2.087-0.312-3.076-0.137c-3.7,0.654-6.433,3.756-6.906,7.911c-0.699,6.13,1.35,11.387,5.24,15.966
				c1.696,1.996,3.153,2.262,5.584,1.293c0.796-0.318,1.621-0.599,2.459-0.765c1.462-0.289,2.806,0.209,4.142,0.776
				c2.215,0.938,3.877,0.601,5.48-1.209c1.787-2.017,3.193-4.294,4.066-6.885c0.046-0.138,0.071-0.283,0.104-0.416
				C248.173,23.479,247.604,16.298,252.806,12.631z M240.617,8.926c3.498-0.234,6.678-4.37,6.001-7.926
				c-1.398,0.11-2.628,0.666-3.727,1.521c-1.827,1.42-2.806,3.32-2.954,5.662C239.905,8.679,240,8.967,240.617,8.926z"/>
		</g>
	</g>
	<g>
		<g>
			<path fill-rule="evenodd" clip-rule="evenodd" fill="#FFFFFF" d="M249.156,54.477h-8.979c-3.01,0-6.02,0.001-9.03-0.003
				c-0.196,0-0.299,0.028-0.299,0.266c0.008,4.456,0.003,8.91,0.01,13.364c0.002,1.104,1.026,2.103,2.124,2.108
				c0.472,0.001,0.941,0.005,1.411-0.001c0.167-0.002,0.228,0.06,0.226,0.229c-0.007,0.577-0.007,1.154-0.001,1.73
				c0.01,0.959,0.002,1.92,0.052,2.878c0.044,0.851,0.687,1.562,1.508,1.766c0.842,0.208,1.724-0.133,2.195-0.837
				c0.269-0.4,0.369-0.844,0.37-1.313c0.005-1.38,0.008-2.759-0.002-4.14c-0.003-0.234,0.057-0.32,0.303-0.315
				c0.74,0.015,1.479,0.005,2.218,0.006c0.348,0,0.349,0.001,0.349,0.349c0.001,1.442-0.007,2.882,0.007,4.323
				c0.002,0.238,0.054,0.488,0.142,0.709c0.343,0.885,1.316,1.432,2.201,1.26c1.022-0.197,1.729-1.024,1.731-2.031v-4.245
				c0-0.365,0-0.365,0.351-0.366c0.426-0.001,0.853,0.008,1.279-0.004c0.188-0.005,0.382-0.032,0.563-0.085
				c1.018-0.303,1.617-1.19,1.618-2.385V54.82C249.502,54.478,249.502,54.477,249.156,54.477z M231.226,53.654h17.881
				c0.078,0,0.168,0.023,0.232-0.008c0.066-0.033,0.158-0.124,0.15-0.179c-0.064-0.543-0.103-1.095-0.235-1.625
				c-0.609-2.463-2.109-4.243-4.278-5.484c-0.217-0.125-0.257-0.21-0.131-0.433c0.433-0.758,0.845-1.527,1.254-2.296
				c0.053-0.097,0.069-0.228,0.054-0.336c-0.01-0.054-0.147-0.142-0.195-0.125c-0.102,0.037-0.216,0.114-0.268,0.206
				c-0.437,0.775-0.867,1.553-1.281,2.34c-0.114,0.216-0.217,0.261-0.444,0.161c-0.929-0.411-1.912-0.645-2.919-0.717
				c-1.633-0.119-3.227,0.078-4.744,0.731c-0.172,0.074-0.262,0.046-0.352-0.122c-0.381-0.716-0.773-1.426-1.163-2.137
				c-0.071-0.13-0.132-0.272-0.231-0.376c-0.058-0.06-0.201-0.094-0.271-0.062c-0.07,0.033-0.121,0.16-0.129,0.25
				c-0.007,0.076,0.056,0.161,0.097,0.236c0.416,0.767,0.83,1.534,1.253,2.297c0.093,0.163,0.082,0.249-0.097,0.344
				c-0.842,0.453-1.597,1.025-2.255,1.722c-1.387,1.474-2.197,3.205-2.298,5.247C230.837,53.653,230.847,53.654,231.226,53.654z
				 M244.405,48.677c0.455-0.011,0.858,0.385,0.857,0.84c-0.001,0.461-0.364,0.819-0.833,0.821c-0.48,0.001-0.825-0.336-0.827-0.811
				C243.6,49.057,243.949,48.687,244.405,48.677z M235.886,48.677c0.453-0.011,0.849,0.376,0.854,0.838
				c0.008,0.45-0.368,0.82-0.83,0.823c-0.49,0.001-0.819-0.323-0.82-0.81C235.089,49.044,235.421,48.688,235.886,48.677z
				 M227.98,54.073c-1.313,0.015-2.033,1.071-2.032,2.058c0.001,2.908,0,5.816,0.001,8.724c0,1.143,0.899,2.053,2.028,2.055
				c1.155,0.002,2.05-0.891,2.05-2.05c0.002-1.449,0.001-2.9,0.001-4.35c0-1.476,0-2.952-0.001-4.428
				C230.027,55.062,229.218,54.06,227.98,54.073z M254.365,60.483c0-1.476,0.006-2.952-0.003-4.428
				c-0.007-0.787-0.396-1.366-1.069-1.733c-0.68-0.37-1.373-0.341-2.032,0.063c-0.663,0.408-0.976,1.033-0.978,1.799
				c-0.008,2.821-0.006,5.642-0.002,8.462c0.002,0.208,0.019,0.418,0.052,0.623c0.183,1.083,1.337,1.852,2.398,1.605
				c1.015-0.234,1.631-0.998,1.634-2.042C254.37,63.382,254.366,61.933,254.365,60.483
				C254.365,60.483,254.365,60.483,254.365,60.483z"/>
		</g>
	</g>
	<g>
		<path fill-rule="evenodd" clip-rule="evenodd" fill="#FFFFFF" d="M228.828,579.298c-2.952-1.324-5.994-0.521-7.908,1.866
			c-1.66,2.076-2.031,5.041-0.744,6.86C222.326,584.441,225.142,581.575,228.828,579.298z"/>
		<path fill-rule="evenodd" clip-rule="evenodd" fill="#FFFFFF" d="M228.61,587.886c-1.433,1.461-3.188,2.592-4.889,3.93
			c2.826,1.157,5.609,0.5,7.547-1.649c1.813-2.012,2.287-4.822,1.118-7.155C231.117,584.683,230.025,586.449,228.61,587.886z"/>
		<path fill-rule="evenodd" clip-rule="evenodd" fill="#FFFFFF" d="M216.951,550.382c0.913-0.188,1.837-0.33,2.74-0.568
			c0.473-0.123,1.2-0.324,1.281-0.63c0.113-0.416-0.143-1.207-0.49-1.43c-1.258-0.791-2.587-0.531-3.737,0.297
			c-0.452,0.327-0.922,0.979-0.919,1.479c0,0.435,0.646,0.874,1.002,1.315C216.869,550.691,216.911,550.534,216.951,550.382z"/>
		<path fill-rule="evenodd" clip-rule="evenodd" fill="#FFFFFF" d="M235.365,294.342c0.987-0.003,1.754-0.759,1.756-1.73
			c0.003-0.959-0.847-1.793-1.805-1.772c-0.964,0.021-1.701,0.802-1.696,1.793C233.625,293.634,234.353,294.345,235.365,294.342z"/>
		<path fill-rule="evenodd" clip-rule="evenodd" fill="#FFFFFF" d="M215.676,292.635c0.002,1.027,0.694,1.711,1.727,1.707
			c0.976-0.004,1.768-0.787,1.753-1.734c-0.016-0.973-0.85-1.791-1.806-1.768C216.373,290.863,215.673,291.614,215.676,292.635z"/>
		<path fill-rule="evenodd" clip-rule="evenodd" fill="#FFFFFF" d="M251.152,481.363c-1.131-1.936-2.636-3.524-4.423-4.869
			c-2.209-1.657-4.683-2.784-7.281-3.661c-0.501-0.174-1.009-0.328-1.515-0.497c2.105-0.717,4.266-0.83,6.438-0.994
			c-1.136-0.851-2.224-1.73-3.581-2.094c-1.631-0.436-3.281-0.787-4.921-1.173c-0.131-0.034-0.256-0.003-0.385-0.055
			c0.011-0.04,0.023-0.021,0.033-0.021c0.734,0,1.47,0,2.206,0c0.004,0,0.008-0.168,0.011-0.202
			c-3.755-1.432-7.637-2.144-11.663-2.054c-4.021,0.086-7.866,0.925-11.542,2.546c-3.688,1.626-6.925,3.872-9.733,6.839
			c0.586-0.045,1.096-0.051,1.586-0.132c1.566-0.266,3.111-0.088,4.635,0.228c0.524,0.107,0.817,0.074,1.196-0.342
			c1.795-2.006,4.12-2.985,6.754-3.316c0.582-0.069,1.17-0.081,1.762-0.127c0.009,0.046,0.018,0.077,0.023,0.119
			c-0.091,0.072-0.17,0.155-0.267,0.212c-2.317,1.454-3.462,3.673-4.049,6.243c-0.045,0.196-0.03,0.502,0.087,0.643
			c0.498,0.614,1.021,1.196,1.573,1.759c0.515,0.517,1.137,0.791,1.902,0.782c1.408-0.005,2.821,0.037,4.229,0.117
			c0.554,0.029,1.143,0.143,1.344,0.8c0.211,0.694,0.204,1.357-0.22,1.996c-0.274,0.411-0.626,0.691-1.036,0.951
			c-0.644,0.417-1.243,0.9-1.863,1.351c-1.096,0.801-2.195,1.605-3.278,2.419c-0.114,0.084-0.2,0.294-0.19,0.43
			c0.082,0.779,0.232,1.55,0.293,2.332c0.056,0.672,0.015,1.336,0.015,2.052c-0.387-0.107-0.781-0.192-1.165-0.313
			c-0.936-0.302-1.873-0.343-2.786,0.06c-0.811,0.353-1.237,1.069-1.48,1.869c-0.095,0.309,0,0.72,0.108,1.056
			c0.483,1.505,1.364,2.736,2.67,3.65c1.195,0.831,2.517,1.388,3.954,1.594c1.23,0.177,2.421-0.075,3.546-0.629
			c1.261-0.617,2.575-1.051,3.979-1.225c1.379-0.172,2.689,0.074,3.938,0.651c0.849,0.392,1.631,0.899,2.014,1.789
			c0.379,0.884,0.214,1.856-1.063,1.74c-0.514-0.052-1.062,0.065-1.568,0.203c-1.023,0.277-1.832,0.948-2.646,1.594
			c-1.24,0.981-2.574,1.768-4.133,2.178c-1.676,0.435-3.369,0.629-5.096,0.563c-0.483-0.015-0.961-0.077-1.443-0.125
			c-0.018,0.028-0.038,0.062-0.059,0.09c0.059,0.035,0.122,0.059,0.172,0.098c1.913,1.683,4.104,2.896,6.503,3.722
			c1.054,0.368,2.139,0.638,3.225,0.904c0.739,0.182,1.497,0.338,2.254,0.408c1.735,0.146,3.415-0.173,5.036-0.787
			c1.524-0.586,2.899-1.434,4.145-2.493c1.771-1.502,3.2-3.299,4.471-5.227c0.213-0.319,0.444-0.628,0.671-0.939
			c0.041,0.022,0.08,0.046,0.122,0.063c-0.172,1.766-0.428,3.511-0.827,5.272c0.503-0.411,0.989-0.823,1.358-1.328
			c1.032-1.399,1.496-3.053,1.77-4.721c0.249-1.531,0.341-3.102,0.407-4.655c0.046-1.171-0.066-2.351-0.1-3.521
			c-0.006-0.169,0.014-0.329,0.028-0.538c1.101,0.546,1.754,1.442,2.354,2.408c0.061-0.074,0.111-0.108,0.126-0.158
			c0.594-1.649,0.816-3.381,0.896-5.12c0.096-2.133-0.095-4.261-0.445-6.373c-0.081-0.509-0.141-1.021-0.223-1.631
			c1.386,0.388,1.999,1.496,2.76,2.538c0-0.185,0.012-0.276-0.002-0.366C252.489,484.327,251.982,482.792,251.152,481.363z"/>
		<path fill-rule="evenodd" clip-rule="evenodd" fill="#FFFFFF" d="M181,181v450h90V181H181z M258.365,394.31
			c6.988,19.688-5.307,41.129-25.875,45.058c-1.404,0.274-2.82,0.451-4.235,0.68c-0.629-0.006-1.258-0.006-1.887-0.006
			c0.136-0.319,0.244-0.666,0.42-0.965c4.728-8.148,9.438-16.308,14.209-24.427c3.85-6.572,3.139-14.69-1.87-20.436
			c-0.227-0.26-0.441-0.531-0.794-0.944c0.507-0.04,0.839-0.073,1.172-0.078c5.749,0,11.496,0.023,17.241-0.026
			C257.677,393.156,258.062,393.451,258.365,394.31z M225.807,418.164c-6.896-0.029-12.508-5.623-12.479-12.452
			c0.022-6.853,5.657-12.423,12.522-12.405c6.897,0.031,12.509,5.628,12.483,12.452C238.305,412.61,232.667,418.195,225.807,418.164
			z M254.449,388.273c-9.432-0.015-18.865,0.005-28.296-0.07c-7.594-0.055-14.395,4.606-16.952,11.76
			c-0.134,0.363-0.276,0.738-0.502,1.349c-3.363-5.797-6.587-11.344-9.8-16.87c14.77-18.672,44.255-16.914,56.436,3.71
			C255.011,388.196,254.729,388.273,254.449,388.273z M195.402,324.948c-0.002-6.131,0.003-12.263-0.003-18.394
			c-0.002-2.079,1.517-4.307,4.285-4.337c2.61-0.028,4.316,2.083,4.317,4.235c0.003,3.112,0.001,6.223,0.001,9.335
			c0,3.057,0.003,6.114-0.001,9.17c-0.002,2.445-1.887,4.328-4.324,4.323C197.3,329.277,195.403,327.358,195.402,324.948z
			 M215.551,285.142c-0.893-1.608-1.768-3.225-2.646-4.84c-0.086-0.16-0.216-0.34-0.201-0.499c0.017-0.189,0.125-0.457,0.271-0.526
			c0.145-0.067,0.45,0.005,0.569,0.129c0.21,0.219,0.339,0.52,0.488,0.793c0.822,1.499,1.65,2.995,2.453,4.505
			c0.188,0.354,0.38,0.415,0.741,0.259c3.198-1.38,6.561-1.792,10.001-1.543c2.123,0.153,4.194,0.646,6.155,1.512
			c0.475,0.209,0.695,0.115,0.935-0.339c0.873-1.66,1.781-3.3,2.701-4.935c0.109-0.195,0.35-0.357,0.564-0.434
			c0.101-0.036,0.393,0.149,0.41,0.264c0.035,0.227-0.002,0.505-0.11,0.708c-0.863,1.623-1.733,3.244-2.643,4.841
			c-0.268,0.471-0.182,0.652,0.276,0.915c4.572,2.616,7.736,6.368,9.021,11.563c0.276,1.115,0.356,2.279,0.494,3.425
			c0.014,0.116-0.179,0.141-0.319,0.209c-0.135,0.066-0.323-0.149-0.488-0.149h-37.699c-0.801,0-0.819,0.165-0.781-0.607
			c0.214-4.305,1.922-7.87,4.848-10.977c1.385-1.471,2.979-2.633,4.753-3.588C215.722,285.626,215.743,285.486,215.551,285.142z
			 M227.688,336.244c-1.56-0.001-3.119,0.02-4.678-0.011c-0.52-0.01-0.643,0.17-0.64,0.665c0.021,2.91,0.018,5.819,0.007,8.729
			c-0.004,0.989-0.214,1.926-0.779,2.767c-0.998,1.486-2.857,2.207-4.629,1.767c-1.731-0.43-3.088-1.93-3.182-3.723
			c-0.104-2.019-0.086-4.044-0.108-6.066c-0.013-1.215-0.013-2.432,0.003-3.647c0.004-0.358-0.122-0.488-0.478-0.483
			c-0.989,0.014-1.98,0.007-2.971,0.003c-2.318-0.01-4.477-2.117-4.48-4.444c-0.015-9.392-0.004-18.783-0.018-28.175
			c-0.001-0.504,0.213-0.596,0.627-0.596c6.346,0.01,12.692-0.027,19.039-0.027h18.929c0.727,0,0.727,0.035,0.727,0.758
			c0.001,9.078,0.002,18.173,0,27.252c-0.001,2.52-1.264,4.4-3.41,5.038c-0.381,0.112-0.789,0.171-1.187,0.183
			c-0.897,0.026-1.797,0.009-2.695,0.011c-0.74,0.002-0.741,0.004-0.741,0.772c-0.001,2.982,0.002,5.967-0.001,8.949
			c-0.003,2.123-1.491,3.866-3.647,4.284c-1.864,0.361-3.918-0.791-4.643-2.657c-0.183-0.468-0.294-0.995-0.297-1.496
			c-0.028-3.038-0.014-6.077-0.016-9.115C228.42,336.247,228.417,336.245,227.688,336.244z M255.304,306.53
			c0.022,3.112,0.007,6.47,0.007,9.47h0.003c0,3,0.008,5.978-0.002,9.035c-0.008,2.202-1.305,3.745-3.443,4.24
			c-2.24,0.519-4.672-1.136-5.056-3.418c-0.072-0.432-0.108-0.892-0.109-1.33c-0.008-5.948-0.015-11.903,0.002-17.851
			c0.005-1.616,0.663-2.937,2.062-3.795c1.389-0.854,2.851-0.85,4.282-0.07C254.471,303.584,255.293,304.87,255.304,306.53z
			 M223.245,201.649c0.321-5.024,2.433-9.099,6.376-12.147c2.372-1.834,5.025-3.026,8.043-3.262
			c1.462,7.63-5.399,16.503-12.951,17.004C223.381,203.334,223.177,202.715,223.245,201.649z M194.395,221.44
			c1.021-8.913,6.918-15.568,14.904-16.972c2.134-0.375,4.432,0.076,6.64,0.294c0.868,0.085,1.749,0.471,2.53,0.897
			c3.616,1.97,7.127,1.894,10.825,0.034c3.27-1.643,6.816-2.192,10.494-1.537c4.626,0.828,8.391,3.001,11.232,7.039
			c-11.228,7.866-10.001,23.275,1.809,29.04c-0.07,0.284-0.123,0.596-0.225,0.893c-1.884,5.557-4.919,10.443-8.773,14.771
			c-3.46,3.883-7.049,4.607-11.83,2.594c-2.884-1.214-5.784-2.285-8.938-1.664c-1.809,0.356-3.59,0.959-5.309,1.64
			c-5.246,2.08-8.39,1.508-12.05-2.773C197.308,245.871,192.884,234.592,194.395,221.44z M191,402.791c1-1.479,0.66-2.971,0.98-4.44
			c0.701-3.237,1.926-6.314,3.679-9.331c0.291,0.463,0.57,0.811,0.784,1.173c4.749,8.193,9.524,16.371,14.26,24.572
			c3.526,6.092,11.297,9.603,18.202,8.216c0.436-0.086,0.875-0.147,1.493-0.246c-0.21,0.44-0.33,0.747-0.49,1.028
			c-2.867,4.945-5.77,9.869-8.579,14.846c-0.505,0.895-1.03,1.044-1.927,0.831c-14.531-3.344-23.84-12.15-27.45-26.57
			c-0.343-1.376,0.048-2.782-0.952-4.178V402.791z M232.821,619.616c-17.399,3.24-34.254-7-39.314-23.86
			c-5.396-17.983,4.204-37.936,23.077-43.672c-0.044-0.08-0.065-0.204-0.136-0.24c-1.047-0.491-1.944-1.18-1.854-2.462
			c0.097-1.322,0.997-2.126,2.129-2.682c0.324-0.157,0.625-0.364,0.938-0.55c0.855-0.006,1.715-0.006,2.571-0.006
			c1.09,0.737,2.366,1.396,1.98,3.076c-0.143,0.621-0.547,1.184-0.835,1.776c22.113-3.194,38.169,15.237,39.03,32.438
			C261.268,600.621,249.343,616.533,232.821,619.616z M260.522,494.506c-0.169,1.289-0.272,2.597-0.474,3.882
			c-0.184,1.174-0.427,2.35-0.717,3.504c-0.395,1.579-0.831,3.149-1.302,4.706c-0.7,2.313-1.71,4.498-2.892,6.608
			c-0.928,1.646-1.962,3.227-3.146,4.707c-1.761,2.199-3.767,4.149-6.082,5.773c-4.11,2.875-8.682,4.639-13.607,5.501
			c-1.281,0.229-2.599,0.325-3.902,0.383c-1.854,0.086-3.712,0.111-5.569,0.094c-0.788-0.008-1.578-0.179-2.362-0.293
			c-0.882-0.126-1.773-0.212-2.633-0.426c-1.522-0.374-3.051-0.751-4.525-1.269c-2.383-0.828-4.612-2.002-6.698-3.421
			c-2.116-1.439-4.031-3.116-5.758-5.019c-1.949-2.138-3.6-4.492-5.001-7.019c-1.173-2.125-2.159-4.333-2.859-6.651
			c-0.443-1.486-0.725-3.014-1.05-4.533c-0.094-0.429-0.078-0.876-0.117-1.31c-0.009-0.126-0.026-0.252-0.042-0.381
			c-0.033,0.018-0.082,0.015-0.125,0.015c-0.079,0.568-0.154,1.146-0.237,1.714c-0.035-0.004-0.073-0.006-0.107-0.009
			c-0.126-3.53,0.174-7.037,0.779-10.526c-0.04-0.009-0.078-0.023-0.122-0.035c-0.333,0.763-0.67,1.525-1.003,2.291
			c-0.033-0.009-0.064-0.019-0.101-0.025c0.056-0.324,0.095-0.655,0.173-0.972c0.288-1.156,0.53-2.333,0.902-3.471
			c0.523-1.593,1.112-3.17,1.747-4.729c0.28-0.691,0.722-1.324,1.121-1.974c0.304-0.497,0.497-1.017,0.482-1.613
			c-0.022-0.883-0.017-1.765,0.012-2.645c0.1-3.024,1.05-5.734,3.019-8.064c0.048-0.061,0.104-0.121,0.162-0.172
			c0.029-0.026,0.073-0.029,0.153-0.054c0.505,1.535,1.122,3.018,2.013,4.378c1.156-1.117,2.254-2.237,3.416-3.273
			c3.744-3.353,8.087-5.595,12.966-6.803c2.549-0.631,5.146-0.892,7.768-0.876c1.592,0.005,3.184-0.026,4.77,0.088
			c4.275,0.314,8.316,1.474,12.111,3.493c2.156,1.15,4.13,2.541,5.979,4.146c0.667,0.577,1.457,1.025,2.18,1.542
			c2.331,1.683,4.114,3.813,5.244,6.472c0.013,0.031,0.055,0.057,0.081,0.077c0.162-0.332,0.088-1.534-0.178-2.522
			c-0.218-0.811-0.463-1.622-0.693-2.427c0.043-0.028,0.087-0.06,0.135-0.086c0.251,0.297,0.572,0.551,0.743,0.882
			c0.569,1.144,1.182,2.262,1.608,3.459c0.619,1.723,1.145,3.481,1.599,5.258c0.393,1.537,0.657,3.107,0.928,4.681
			c0.216,1.262,0.359,2.519,0.539,3.801c0.511-1.179,0.626-2.468,0.896-3.724c0.017,0.143,0.045,0.291,0.045,0.429
			C260.795,490.214,260.804,492.366,260.522,494.506z"/>
		<path fill-rule="evenodd" clip-rule="evenodd" fill="#FFFFFF" d="M250.77,581.784c-1.367-0.166-2.729-0.37-4.468-0.607
			c1.836-1.171,3.31-2.109,4.739-3.024c-3.097-11.915-15.485-20.372-27.319-18.827c-0.882,0.114-1.087,0.519-1.176,1.257
			c-0.161,1.387-0.363,2.774-0.598,4.538c-1.133-1.832-2.034-3.29-2.979-4.81c-11.737,3.145-20.072,15.726-18.547,27.739
			c0.113,0.893,0.512,1.105,1.242,1.192c1.368,0.167,2.729,0.371,4.469,0.605c-1.837,1.174-3.31,2.112-4.739,3.027
			c3.095,11.914,15.484,20.368,27.318,18.827c0.885-0.115,1.091-0.52,1.171-1.257c0.163-1.391,0.368-2.775,0.603-4.539
			c1.16,1.866,2.082,3.361,2.982,4.81c11.732-3.144,20.068-15.726,18.544-27.738C251.898,582.081,251.502,581.868,250.77,581.784z
			 M241.182,582c0.029,0,0.054,0.277,0.08,0.419c-1.985,0.961-3.968,1.921-5.953,2.892c-1.652,0.807-2.102,3.369-0.835,4.726
			c0.609,0.648,1.216,1.303,1.674,2.184c-0.879-0.306-1.757-0.608-2.64-0.921c-1.607-0.563-3.779,0.97-3.804,2.729
			c-0.032,2.211-0.006,4.429-0.309,6.746c-0.182-0.278-0.396-0.544-0.538-0.841c-0.564-1.168-1.281-2.304-1.614-3.533
			c-0.615-2.283-2.185-3.188-4.257-3.479c-0.426-0.061-0.981,0.201-1.354,0.479c-3.688,2.805-7.35,5.644-11.02,8.477
			c-0.337,0.257-0.686,0.482-1.3,0.52c3.254-4.353,6.5-8.396,9.989-13.396h-8.048c-0.028,0-0.052-0.258-0.078-0.394
			c1.985-0.97,3.966-1.917,5.951-2.884c1.654-0.811,2.104-3.365,0.836-4.724c-0.608-0.652-1.215-1.305-1.674-2.183
			c0.88,0.31,1.758,0.61,2.637,0.923c1.607,0.565,3.78-0.974,3.804-2.722c0.029-2.218,0.006-4.438,0.309-6.755
			c0.182,0.281,0.396,0.544,0.539,0.851c0.563,1.164,1.283,2.298,1.614,3.529c0.615,2.279,2.188,3.186,4.256,3.476
			c0.427,0.063,0.979-0.2,1.353-0.479c3.688-2.802,7.351-5.644,11.02-8.471c0.337-0.263,0.687-0.505,1.3-0.545
			c-3.247,4.346-6.494,8.376-9.984,13.376H241.182z"/>
	</g>
	<g>
		<g>
			<path fill="#FFFFFF" d="M216.755,100.558c-0.41-8.181-8.046-16.948-18.563-15.428c0.137-0.282,0.329-0.549,0.396-0.845
				c0.185-0.799-0.423-1.112-0.941-1.463c-0.407,0-0.816,0-1.224,0.002c-0.148,0.088-0.291,0.187-0.445,0.262
				c-0.538,0.264-0.967,0.646-1.013,1.275c-0.043,0.61,0.384,0.938,0.882,1.171c0.033,0.017,0.043,0.076,0.064,0.114
				c-8.977,2.729-13.543,12.218-10.976,20.772c2.406,8.019,10.423,12.889,18.698,11.348
				C211.491,116.3,217.163,108.732,216.755,100.558z M195.551,84.432c-0.001-0.239,0.222-0.548,0.437-0.704
				c0.548-0.394,1.18-0.518,1.778-0.141c0.165,0.105,0.287,0.482,0.232,0.68c-0.038,0.146-0.385,0.241-0.608,0.299
				c-0.431,0.113-0.87,0.181-1.304,0.27c-0.019,0.073-0.039,0.148-0.059,0.221C195.857,84.848,195.551,84.639,195.551,84.432z
				 M203.942,113.533c-0.429-0.689-0.867-1.4-1.419-2.287c-0.111,0.838-0.209,1.497-0.287,2.158
				c-0.038,0.351-0.136,0.543-0.557,0.598c-5.628,0.733-11.521-3.288-12.993-8.955c0.68-0.435,1.381-0.881,2.254-1.44
				c-0.827-0.111-1.475-0.208-2.125-0.288c-0.348-0.041-0.538-0.142-0.591-0.567c-0.726-5.714,3.238-11.698,8.821-13.193
				c0.449,0.723,0.877,1.417,1.417,2.288c0.11-0.839,0.207-1.499,0.284-2.159c0.042-0.351,0.14-0.543,0.56-0.598
				c5.628-0.734,11.521,3.288,12.992,8.955c-0.679,0.436-1.38,0.882-2.253,1.438c0.827,0.113,1.475,0.21,2.125,0.289
				c0.348,0.04,0.537,0.142,0.591,0.568C213.487,106.054,209.522,112.038,203.942,113.533z M207.915,93.772
				c-1.745,1.345-3.488,2.696-5.242,4.029c-0.177,0.132-0.44,0.257-0.644,0.228c-0.983-0.138-1.731-0.569-2.024-1.653
				c-0.156-0.586-0.499-1.125-0.768-1.679c-0.067-0.145-0.17-0.271-0.256-0.404c-0.145,1.102-0.133,2.158-0.146,3.213
				c-0.012,0.831-1.045,1.563-1.81,1.294c-0.418-0.148-0.836-0.291-1.254-0.438c0.218,0.417,0.507,0.729,0.796,1.039
				c0.603,0.646,0.39,1.864-0.397,2.249c-0.944,0.459-1.886,0.916-2.831,1.377c0.013,0.064,0.024,0.131,0.037,0.197h3.828
				c-1.659,2.225-3.203,4.291-4.751,6.361c0.292-0.018,0.458-0.135,0.618-0.257c1.745-1.347,3.487-2.697,5.241-4.031
				c0.177-0.132,0.44-0.257,0.644-0.228c0.986,0.139,1.732,0.568,2.024,1.655c0.158,0.584,0.5,1.125,0.769,1.681
				c0.067,0.141,0.17,0.267,0.255,0.399c0.145-1.102,0.132-2.157,0.147-3.208c0.012-0.836,1.045-1.565,1.81-1.298
				c0.419,0.148,0.837,0.292,1.256,0.438c-0.219-0.418-0.507-0.73-0.797-1.039c-0.603-0.645-0.389-1.864,0.397-2.248
				c0.943-0.461,1.887-0.919,2.831-1.375c-0.013-0.067-0.023-0.133-0.038-0.2h-3.827c1.661-2.226,3.205-4.294,4.749-6.361
				C208.241,93.532,208.074,93.648,207.915,93.772z M197.62,102.74c-0.613-0.865-0.436-2.275,0.354-3.263
				c0.91-1.135,2.356-1.518,3.761-0.887C199.981,99.673,198.643,101.036,197.62,102.74z M202.896,103.759
				c-0.922,1.022-2.245,1.335-3.589,0.785c0.809-0.636,1.643-1.174,2.324-1.869c0.674-0.683,1.192-1.523,1.796-2.318
				C203.983,101.465,203.759,102.802,202.896,103.759z"/>
		</g>
	</g>
	<path fill="#FFFFFF" d="M183.794,62.413c-0.038,0.273-0.074,0.551-0.114,0.824c-0.017-0.002-0.034-0.003-0.053-0.005
		c-0.06-1.696,0.085-3.382,0.377-5.06c-0.021-0.005-0.039-0.011-0.061-0.017c-0.16,0.367-0.321,0.734-0.482,1.102
		c-0.015-0.004-0.03-0.009-0.047-0.012c0.026-0.156,0.046-0.315,0.082-0.467c0.139-0.556,0.255-1.122,0.435-1.669
		c0.252-0.766,0.534-1.524,0.84-2.272c0.135-0.333,0.347-0.637,0.538-0.949c0.146-0.239,0.239-0.488,0.232-0.775
		c-0.011-0.424-0.008-0.849,0.006-1.271c0.047-1.454,0.505-2.757,1.45-3.877c0.023-0.029,0.051-0.058,0.078-0.082
		c0.015-0.013,0.035-0.014,0.074-0.026c0.242,0.738,0.539,1.451,0.967,2.104c0.556-0.537,1.084-1.076,1.643-1.574
		c1.8-1.611,3.887-2.689,6.232-3.27c1.226-0.304,2.474-0.429,3.734-0.421c0.766,0.002,1.53-0.012,2.292,0.042
		c2.057,0.151,3.999,0.708,5.823,1.679c1.035,0.553,1.985,1.222,2.873,1.993c0.32,0.277,0.7,0.493,1.05,0.741
		c1.119,0.809,1.977,1.833,2.519,3.111c0.006,0.016,0.026,0.028,0.04,0.038c0.078-0.16,0.042-0.737-0.086-1.212
		c-0.104-0.39-0.223-0.78-0.333-1.167c0.021-0.014,0.042-0.029,0.064-0.041c0.12,0.143,0.275,0.265,0.357,0.424
		c0.273,0.549,0.568,1.087,0.772,1.663c0.298,0.828,0.551,1.673,0.769,2.527c0.188,0.738,0.316,1.493,0.446,2.25
		c0.105,0.607,0.174,1.211,0.26,1.828c0.246-0.567,0.301-1.186,0.431-1.791c0.008,0.069,0.021,0.14,0.021,0.206
		c0.003,1.031,0.007,2.065-0.127,3.094c-0.082,0.62-0.132,1.249-0.229,1.866c-0.088,0.564-0.204,1.13-0.344,1.685
		c-0.19,0.759-0.398,1.514-0.626,2.262c-0.336,1.111-0.822,2.162-1.391,3.176c-0.446,0.791-0.941,1.551-1.512,2.263
		c-0.847,1.058-1.81,1.995-2.923,2.776c-1.977,1.381-4.174,2.229-6.543,2.645c-0.615,0.11-1.248,0.156-1.876,0.184
		c-0.89,0.041-1.783,0.053-2.677,0.044c-0.379-0.003-0.758-0.086-1.136-0.141c-0.424-0.061-0.852-0.102-1.265-0.205
		c-0.732-0.18-1.467-0.361-2.177-0.61c-1.145-0.398-2.217-0.962-3.219-1.645c-1.018-0.691-1.938-1.498-2.768-2.412
		c-0.938-1.028-1.731-2.16-2.404-3.375c-0.563-1.021-1.037-2.082-1.374-3.197c-0.214-0.714-0.349-1.448-0.505-2.179
		c-0.046-0.206-0.038-0.422-0.058-0.63c-0.003-0.06-0.012-0.121-0.02-0.182C183.838,62.414,183.815,62.413,183.794,62.413z
		 M196.596,59.667c-0.187-0.052-0.376-0.093-0.561-0.15c-0.45-0.146-0.9-0.165-1.34,0.029c-0.389,0.169-0.594,0.514-0.711,0.898
		c-0.045,0.148,0,0.346,0.053,0.507c0.231,0.724,0.655,1.315,1.282,1.755c0.575,0.399,1.21,0.667,1.901,0.766
		c0.591,0.085,1.164-0.036,1.704-0.302c0.605-0.296,1.238-0.505,1.913-0.589c0.663-0.082,1.293,0.036,1.894,0.313
		c0.408,0.188,0.784,0.433,0.968,0.861c0.183,0.424,0.104,0.892-0.511,0.835c-0.247-0.024-0.51,0.032-0.753,0.098
		c-0.492,0.133-0.882,0.456-1.272,0.766c-0.597,0.472-1.238,0.85-1.986,1.047c-0.805,0.208-1.619,0.302-2.45,0.27
		c-0.231-0.007-0.462-0.037-0.693-0.06c-0.008,0.014-0.019,0.03-0.028,0.044c0.028,0.016,0.059,0.027,0.083,0.047
		c0.919,0.809,1.972,1.393,3.125,1.789c0.508,0.177,1.028,0.306,1.55,0.435c0.356,0.087,0.72,0.162,1.084,0.196
		c0.835,0.07,1.642-0.083,2.421-0.379c0.732-0.281,1.395-0.689,1.993-1.198c0.852-0.722,1.538-1.586,2.148-2.512
		c0.103-0.154,0.214-0.303,0.322-0.453c0.021,0.011,0.039,0.022,0.059,0.031c-0.082,0.848-0.205,1.687-0.396,2.534
		c0.241-0.198,0.475-0.396,0.652-0.638c0.495-0.673,0.719-1.468,0.851-2.27c0.12-0.736,0.164-1.491,0.196-2.238
		c0.022-0.563-0.032-1.129-0.048-1.693c-0.003-0.081,0.006-0.158,0.013-0.258c0.528,0.263,0.844,0.693,1.131,1.158
		c0.031-0.036,0.055-0.052,0.063-0.076c0.285-0.793,0.392-1.625,0.43-2.462c0.046-1.025-0.046-2.048-0.214-3.063
		c-0.039-0.245-0.068-0.491-0.106-0.784c0.665,0.186,0.96,0.719,1.325,1.22c0-0.089,0.006-0.133-0.001-0.175
		c-0.13-0.779-0.374-1.517-0.773-2.204c-0.544-0.93-1.267-1.694-2.126-2.34c-1.062-0.796-2.251-1.338-3.499-1.76
		c-0.242-0.084-0.486-0.157-0.729-0.239c1.013-0.345,2.05-0.399,3.095-0.478c-0.545-0.408-1.069-0.832-1.722-1.006
		c-0.783-0.21-1.577-0.378-2.365-0.564c-0.063-0.017-0.124-0.048-0.185-0.072c0.005-0.02,0.011-0.039,0.017-0.057
		c0.354,0,0.705,0,1.06,0c0.002-0.018,0.005-0.034,0.006-0.051c-1.806-0.688-3.671-1.007-5.607-0.964
		c-1.933,0.041-3.781,0.456-5.548,1.235c-1.772,0.782-3.329,1.867-4.679,3.294c0.28-0.022,0.525-0.022,0.763-0.061
		c0.752-0.127,1.494-0.041,2.228,0.11c0.252,0.052,0.393,0.037,0.575-0.164c0.863-0.963,1.979-1.434,3.247-1.593
		c0.278-0.034,0.562-0.038,0.846-0.06c0.004,0.022,0.009,0.037,0.011,0.058c-0.043,0.034-0.081,0.074-0.127,0.101
		c-1.114,0.699-1.664,1.766-1.946,3.001c-0.021,0.095-0.016,0.242,0.041,0.31c0.24,0.295,0.491,0.574,0.757,0.845
		c0.248,0.249,0.546,0.381,0.915,0.377c0.676-0.003,1.356,0.018,2.031,0.056c0.267,0.014,0.55,0.068,0.646,0.384
		c0.103,0.333,0.099,0.652-0.106,0.96c-0.131,0.198-0.3,0.332-0.497,0.457c-0.31,0.2-0.598,0.433-0.896,0.649
		c-0.527,0.385-1.055,0.772-1.576,1.163c-0.055,0.04-0.097,0.141-0.091,0.206c0.038,0.375,0.111,0.745,0.14,1.121
		C196.615,59.002,196.596,59.323,196.596,59.667z"/>
	<g opacity="0.35">
		<g>
			<path fill="#615A5F" d="M143.363,738.275c-0.177-0.5-0.398-0.674-0.938-0.668c-3.33,0.029-6.661,0.016-9.994,0.016
				c-0.192,0.004-0.387,0.021-0.68,0.045c0.205,0.242,0.328,0.4,0.46,0.551c2.904,3.352,3.316,8.086,1.083,11.918
				c-2.764,4.736-5.494,9.494-8.235,14.245c-0.102,0.175-0.164,0.378-0.244,0.563c0.365,0,0.73,0,1.096,0.003
				c0.818-0.134,1.641-0.237,2.453-0.397C140.286,762.26,147.414,749.758,143.363,738.275z M127.154,754.852
				c-0.358,0.058-0.611,0.094-0.862,0.145c-4.003,0.809-8.502-1.239-10.546-4.791c-2.745-4.783-5.502-9.554-8.256-14.332
				c-0.123-0.211-0.261-0.412-0.431-0.684c-1.016,1.76-1.681,3.555-2.086,5.442c-0.186,0.856-0.321,1.728-0.479,2.589v3.441
				c0.152,0.814,0.264,1.635,0.462,2.437c2.093,8.409,7.396,13.545,15.82,15.495c0.521,0.125,0.824,0.037,1.117-0.485
				c1.629-2.901,3.313-5.774,4.974-8.657C126.962,755.287,127.033,755.109,127.154,754.852z M114.863,741.572
				c1.482-4.172,5.426-6.891,9.827-6.858c5.468,0.044,10.937,0.032,16.403,0.042c0.162,0,0.325-0.045,0.512-0.072
				c-7.061-12.027-24.151-13.053-32.712-2.162c1.861,3.223,3.73,6.457,5.68,9.838C114.703,742.002,114.787,741.784,114.863,741.572z
				 M117.255,744.924c-0.016,3.984,3.237,7.246,7.235,7.262c3.976,0.02,7.244-3.238,7.261-7.234
				c0.015-3.979-3.238-7.242-7.236-7.262C120.536,737.68,117.269,740.928,117.255,744.924z"/>
		</g>
	</g>
	<g opacity="0.35">
		<g>
			<path fill-rule="evenodd" clip-rule="evenodd" fill="#615A5F" d="M39.882,735.549c-1.646-2.354-3.825-3.62-6.504-4.102
				c-2.13-0.381-4.186-0.062-6.079,0.896c-2.141,1.081-4.174,1.127-6.27-0.021c-0.451-0.248-0.962-0.473-1.465-0.522
				c-1.279-0.127-2.608-0.39-3.845-0.173c-4.626,0.818-8.041,4.696-8.633,9.89c-0.874,7.662,1.687,14.234,6.55,19.957
				c2.121,2.495,3.941,2.827,6.98,1.616c0.994-0.398,2.026-0.75,3.073-0.956c1.827-0.361,3.507,0.263,5.177,0.971
				c2.77,1.172,4.847,0.749,6.852-1.511c2.233-2.522,3.991-5.369,5.082-8.606c0.058-0.173,0.09-0.354,0.13-0.521
				C34.091,749.107,33.381,740.131,39.882,735.549z M24.646,730.917c4.373-0.293,8.348-5.463,7.501-9.908
				c-1.748,0.138-3.284,0.832-4.658,1.9c-2.284,1.774-3.507,4.15-3.692,7.077C23.757,730.607,23.875,730.969,24.646,730.917z"/>
		</g>
	</g>
	<g opacity="0.35">
		<g>
			<path fill-rule="evenodd" clip-rule="evenodd" fill="#615A5F" d="M85.32,737.971H74.098c-3.763,0-7.525,0.002-11.288-0.002
				c-0.245,0-0.374,0.033-0.374,0.332c0.01,5.568,0.004,11.137,0.013,16.703c0.002,1.383,1.282,2.63,2.655,2.637
				c0.589,0.002,1.176,0.006,1.764-0.002c0.209-0.002,0.284,0.076,0.281,0.285c-0.008,0.722-0.008,1.443-0.001,2.164
				c0.013,1.198,0.003,2.399,0.065,3.597c0.055,1.063,0.857,1.952,1.885,2.207c1.052,0.261,2.154-0.166,2.744-1.046
				c0.335-0.5,0.461-1.056,0.462-1.643c0.007-1.725,0.01-3.449-0.002-5.175c-0.004-0.293,0.07-0.399,0.378-0.395
				c0.926,0.02,1.849,0.007,2.772,0.007c0.435,0,0.436,0.002,0.436,0.437c0.001,1.803-0.009,3.603,0.009,5.403
				c0.002,0.299,0.067,0.611,0.177,0.887c0.429,1.107,1.646,1.789,2.752,1.576c1.278-0.247,2.161-1.281,2.164-2.539v-5.307
				c0-0.455,0-0.457,0.438-0.457c0.532-0.001,1.065,0.01,1.599-0.004c0.235-0.008,0.478-0.039,0.703-0.106
				c1.272-0.379,2.021-1.488,2.022-2.982V738.4C85.752,737.972,85.752,737.971,85.32,737.971z M62.907,736.943h22.351
				c0.098,0,0.21,0.029,0.291-0.01c0.083-0.042,0.197-0.155,0.188-0.225c-0.08-0.68-0.128-1.37-0.294-2.031
				c-0.762-3.079-2.637-5.303-5.348-6.855c-0.271-0.155-0.321-0.263-0.164-0.541c0.541-0.949,1.056-1.908,1.567-2.87
				c0.066-0.122,0.087-0.286,0.067-0.421c-0.013-0.067-0.185-0.178-0.244-0.156c-0.127,0.046-0.27,0.143-0.335,0.258
				c-0.545,0.969-1.084,1.94-1.602,2.924c-0.143,0.271-0.271,0.328-0.555,0.203c-1.161-0.516-2.391-0.806-3.648-0.897
				c-2.041-0.147-4.033,0.097-5.931,0.915c-0.215,0.092-0.327,0.057-0.439-0.153c-0.476-0.895-0.967-1.782-1.454-2.671
				c-0.089-0.162-0.164-0.34-0.289-0.47c-0.072-0.074-0.252-0.117-0.338-0.078c-0.088,0.042-0.151,0.2-0.161,0.313
				c-0.009,0.095,0.069,0.202,0.12,0.296c0.521,0.958,1.038,1.917,1.566,2.871c0.116,0.203,0.103,0.31-0.121,0.43
				c-1.052,0.566-1.995,1.281-2.818,2.152c-1.733,1.842-2.746,4.006-2.872,6.559C62.421,736.941,62.434,736.943,62.907,736.943z
				 M79.382,730.723c0.568-0.016,1.073,0.48,1.071,1.049c-0.001,0.576-0.455,1.024-1.041,1.025c-0.601,0.003-1.031-0.42-1.034-1.013
				C78.375,731.195,78.812,730.734,79.382,730.723z M68.732,730.723c0.566-0.016,1.061,0.47,1.068,1.047
				c0.01,0.562-0.461,1.025-1.038,1.027c-0.612,0.003-1.024-0.402-1.025-1.012C67.736,731.18,68.151,730.734,68.732,730.723z
				 M58.851,737.467c-1.642,0.018-2.542,1.339-2.54,2.572c0.001,3.635,0,7.27,0.001,10.905c0,1.429,1.124,2.565,2.535,2.568
				c1.444,0.003,2.563-1.113,2.563-2.563c0.003-1.812,0.001-3.625,0.001-5.438c0-1.846,0-3.688-0.001-5.534
				C61.409,738.702,60.397,737.451,58.851,737.467z M91.832,745.479c0-1.845,0.007-3.689-0.004-5.535
				c-0.009-0.984-0.496-1.707-1.337-2.166c-0.85-0.463-1.716-0.427-2.54,0.078c-0.829,0.511-1.22,1.292-1.223,2.249
				c-0.01,3.526-0.007,7.054-0.002,10.579c0.002,0.26,0.023,0.521,0.064,0.778c0.229,1.353,1.672,2.314,2.998,2.007
				c1.269-0.293,2.039-1.248,2.043-2.554C91.838,749.103,91.833,747.291,91.832,745.479
				C91.832,745.479,91.832,745.479,91.832,745.479z"/>
		</g>
	</g>
	<g opacity="0.35">
		<g>
			<path fill="#615A5F" d="M245.068,744.572c-0.513-10.227-10.057-21.186-23.204-19.286c0.171-0.352,0.411-0.687,0.495-1.055
				c0.231-0.999-0.528-1.392-1.176-1.829c-0.51,0-1.021,0-1.53,0.003c-0.186,0.11-0.363,0.234-0.557,0.327
				c-0.673,0.33-1.208,0.809-1.266,1.594c-0.054,0.762,0.479,1.172,1.103,1.464c0.041,0.021,0.054,0.096,0.08,0.144
				c-11.221,3.41-16.929,15.271-13.719,25.964c3.008,10.024,13.028,16.112,23.372,14.186
				C238.489,764.25,245.579,754.791,245.068,744.572z M218.563,724.414c-0.001-0.297,0.277-0.685,0.546-0.879
				c0.685-0.492,1.475-0.646,2.223-0.177c0.206,0.132,0.359,0.603,0.291,0.851c-0.048,0.182-0.481,0.301-0.761,0.374
				c-0.538,0.142-1.088,0.226-1.63,0.337c-0.023,0.092-0.049,0.186-0.073,0.277C218.947,724.935,218.563,724.674,218.563,724.414z
				 M229.053,760.791c-0.535-0.861-1.084-1.75-1.773-2.858c-0.139,1.048-0.262,1.871-0.359,2.698
				c-0.047,0.439-0.169,0.678-0.695,0.746c-7.035,0.917-14.402-4.108-16.241-11.193c0.85-0.543,1.726-1.102,2.817-1.799
				c-1.034-0.14-1.844-0.262-2.656-0.36c-0.435-0.052-0.673-0.177-0.738-0.71c-0.907-7.141,4.047-14.621,11.026-16.491
				c0.562,0.903,1.096,1.771,1.771,2.86c0.139-1.049,0.26-1.874,0.355-2.699c0.053-0.438,0.175-0.679,0.699-0.747
				c7.035-0.918,14.401,4.111,16.24,11.194c-0.848,0.544-1.725,1.102-2.815,1.798c1.034,0.142,1.843,0.263,2.656,0.361
				c0.435,0.05,0.671,0.177,0.738,0.709C240.984,751.442,236.028,758.922,229.053,760.791z M234.019,736.091
				c-2.181,1.681-4.36,3.37-6.553,5.035c-0.221,0.166-0.55,0.322-0.804,0.286c-1.229-0.174-2.165-0.712-2.531-2.067
				c-0.195-0.732-0.623-1.407-0.959-2.099c-0.084-0.182-0.213-0.339-0.32-0.505c-0.181,1.377-0.166,2.698-0.183,4.017
				c-0.015,1.039-1.307,1.954-2.263,1.618c-0.521-0.186-1.045-0.364-1.566-0.547c0.271,0.521,0.633,0.911,0.994,1.298
				c0.754,0.808,0.487,2.33-0.496,2.811c-1.181,0.574-2.357,1.146-3.539,1.722c0.016,0.081,0.03,0.163,0.046,0.247h4.785
				c-2.073,2.78-4.004,5.363-5.938,7.951c0.365-0.021,0.572-0.168,0.772-0.322c2.182-1.684,4.359-3.371,6.552-5.039
				c0.221-0.165,0.551-0.321,0.805-0.284c1.232,0.173,2.165,0.71,2.53,2.069c0.198,0.729,0.625,1.406,0.961,2.1
				c0.084,0.177,0.212,0.334,0.318,0.5c0.181-1.378,0.165-2.696,0.185-4.012c0.015-1.045,1.306-1.956,2.262-1.622
				c0.523,0.186,1.046,0.365,1.57,0.548c-0.273-0.523-0.634-0.912-0.996-1.299c-0.754-0.805-0.486-2.33,0.496-2.81
				c1.18-0.576,2.358-1.147,3.539-1.719c-0.016-0.084-0.029-0.166-0.048-0.25h-4.784c2.077-2.782,4.007-5.368,5.937-7.952
				C234.427,735.789,234.218,735.936,234.019,736.091z M221.15,747.301c-0.767-1.082-0.545-2.845,0.441-4.079
				c1.138-1.419,2.945-1.896,4.701-1.109C224.102,743.466,222.428,745.17,221.15,747.301z M227.744,748.573
				c-1.152,1.278-2.807,1.669-4.486,0.98c1.012-0.794,2.054-1.468,2.906-2.337c0.842-0.852,1.49-1.904,2.244-2.897
				C229.104,745.706,228.823,747.379,227.744,748.573z"/>
		</g>
	</g>
	<path opacity="0.35" fill="#615A5F" d="M153.639,747.092c-0.051,0.356-0.097,0.719-0.149,1.076
		c-0.022-0.002-0.045-0.004-0.068-0.007c-0.078-2.213,0.11-4.413,0.491-6.602c-0.026-0.006-0.051-0.015-0.078-0.022
		c-0.209,0.479-0.42,0.957-0.631,1.438c-0.02-0.006-0.039-0.012-0.061-0.016c0.034-0.203,0.06-0.412,0.107-0.609
		c0.181-0.727,0.332-1.464,0.566-2.177c0.33-1.001,0.697-1.989,1.096-2.966c0.176-0.436,0.452-0.83,0.702-1.238
		c0.192-0.313,0.313-0.637,0.304-1.014c-0.014-0.553-0.011-1.105,0.008-1.657c0.061-1.897,0.658-3.598,1.893-5.059
		c0.03-0.039,0.065-0.075,0.101-0.107c0.02-0.017,0.047-0.019,0.098-0.034c0.316,0.963,0.703,1.893,1.261,2.746
		c0.726-0.7,1.415-1.403,2.145-2.053c2.348-2.104,5.071-3.511,8.132-4.268c1.599-0.396,3.228-0.559,4.873-0.549
		c0.999,0.002,1.996-0.017,2.991,0.055c2.683,0.196,5.217,0.924,7.598,2.191c1.351,0.721,2.59,1.594,3.748,2.6
		c0.419,0.362,0.914,0.645,1.37,0.968c1.461,1.056,2.579,2.392,3.287,4.06c0.007,0.02,0.034,0.036,0.052,0.049
		c0.102-0.208,0.055-0.963-0.113-1.582c-0.135-0.508-0.289-1.019-0.433-1.522c0.026-0.019,0.054-0.038,0.083-0.054
		c0.157,0.187,0.359,0.346,0.467,0.553c0.357,0.717,0.741,1.418,1.008,2.17c0.389,1.08,0.719,2.184,1.003,3.298
		c0.245,0.963,0.413,1.949,0.583,2.936c0.137,0.792,0.227,1.579,0.338,2.386c0.32-0.74,0.393-1.549,0.563-2.337
		c0.01,0.089,0.028,0.183,0.028,0.269c0.003,1.346,0.009,2.695-0.166,4.037c-0.107,0.809-0.173,1.629-0.3,2.436
		c-0.114,0.735-0.266,1.475-0.449,2.197c-0.247,0.99-0.52,1.976-0.816,2.952c-0.438,1.45-1.072,2.821-1.813,4.145
		c-0.583,1.032-1.229,2.024-1.973,2.952c-1.104,1.38-2.362,2.604-3.815,3.623c-2.578,1.801-5.445,2.908-8.536,3.449
		c-0.803,0.145-1.628,0.205-2.448,0.242c-1.161,0.052-2.327,0.068-3.492,0.057c-0.495-0.005-0.989-0.112-1.482-0.184
		c-0.553-0.078-1.111-0.133-1.65-0.267c-0.956-0.234-1.914-0.472-2.84-0.796c-1.494-0.52-2.893-1.255-4.2-2.146
		c-1.328-0.902-2.529-1.954-3.61-3.146c-1.224-1.343-2.26-2.818-3.138-4.404c-0.734-1.332-1.354-2.716-1.793-4.171
		c-0.279-0.932-0.455-1.89-0.659-2.843c-0.06-0.27-0.049-0.55-0.074-0.823c-0.005-0.078-0.016-0.156-0.025-0.237
		C153.695,747.094,153.666,747.092,153.639,747.092z M170.342,743.509c-0.242-0.067-0.49-0.12-0.73-0.196
		c-0.588-0.189-1.175-0.215-1.748,0.038c-0.508,0.221-0.775,0.67-0.928,1.172c-0.059,0.192,0,0.45,0.068,0.663
		c0.303,0.943,0.855,1.716,1.674,2.289c0.75,0.521,1.578,0.869,2.48,0.999c0.771,0.112,1.518-0.046,2.224-0.395
		c0.79-0.387,1.615-0.659,2.496-0.768c0.864-0.107,1.688,0.046,2.471,0.407c0.532,0.247,1.023,0.564,1.263,1.123
		c0.238,0.555,0.135,1.165-0.667,1.092c-0.322-0.031-0.665,0.041-0.982,0.127c-0.642,0.174-1.149,0.596-1.66,1
		c-0.777,0.616-1.615,1.109-2.592,1.365c-1.05,0.273-2.112,0.396-3.196,0.354c-0.302-0.01-0.604-0.049-0.905-0.079
		c-0.011,0.018-0.024,0.04-0.036,0.057c0.036,0.022,0.075,0.037,0.107,0.062c1.199,1.055,2.573,1.816,4.078,2.334
		c0.662,0.231,1.342,0.4,2.021,0.567c0.465,0.113,0.939,0.211,1.415,0.257c1.09,0.091,2.142-0.108,3.159-0.495
		c0.955-0.365,1.818-0.898,2.6-1.563c1.111-0.941,2.007-2.07,2.805-3.278c0.133-0.2,0.277-0.396,0.42-0.591
		c0.026,0.015,0.051,0.029,0.076,0.041c-0.107,1.106-0.268,2.2-0.518,3.307c0.315-0.26,0.619-0.516,0.852-0.833
		c0.646-0.879,0.938-1.915,1.11-2.962c0.156-0.959,0.214-1.945,0.255-2.92c0.029-0.734-0.041-1.475-0.063-2.209
		c-0.003-0.105,0.009-0.205,0.018-0.337c0.689,0.345,1.102,0.905,1.476,1.511c0.04-0.046,0.071-0.068,0.081-0.099
		c0.372-1.035,0.512-2.12,0.562-3.212c0.06-1.338-0.06-2.673-0.28-3.997c-0.051-0.319-0.089-0.642-0.139-1.023
		c0.868,0.243,1.252,0.938,1.729,1.592c0-0.116,0.008-0.173-0.001-0.228c-0.17-1.018-0.488-1.98-1.01-2.877
		c-0.709-1.213-1.652-2.209-2.773-3.054c-1.385-1.039-2.938-1.745-4.566-2.298c-0.314-0.108-0.634-0.205-0.951-0.31
		c1.321-0.45,2.675-0.522,4.038-0.625c-0.712-0.532-1.396-1.084-2.247-1.313c-1.021-0.274-2.059-0.494-3.086-0.735
		c-0.082-0.022-0.161-0.063-0.24-0.096c0.006-0.024,0.014-0.049,0.021-0.073c0.462,0,0.921,0,1.383,0
		c0.003-0.023,0.007-0.044,0.008-0.065c-2.356-0.898-4.79-1.315-7.317-1.258c-2.521,0.054-4.933,0.595-7.238,1.611
		c-2.313,1.021-4.344,2.437-6.105,4.298c0.367-0.028,0.687-0.028,0.995-0.079c0.981-0.166,1.951-0.054,2.907,0.145
		c0.329,0.066,0.512,0.047,0.75-0.215c1.127-1.258,2.583-1.871,4.237-2.078c0.364-0.044,0.732-0.051,1.104-0.079
		c0.005,0.028,0.013,0.048,0.015,0.074c-0.057,0.045-0.106,0.098-0.166,0.133c-1.454,0.912-2.172,2.304-2.54,3.915
		c-0.028,0.125-0.02,0.316,0.054,0.405c0.313,0.384,0.641,0.749,0.987,1.101c0.323,0.325,0.713,0.498,1.194,0.494
		c0.882-0.006,1.77,0.021,2.65,0.072c0.349,0.018,0.717,0.088,0.844,0.501c0.133,0.435,0.129,0.853-0.139,1.253
		c-0.171,0.258-0.393,0.433-0.648,0.596c-0.404,0.261-0.78,0.564-1.17,0.847c-0.687,0.503-1.375,1.009-2.055,1.519
		c-0.072,0.051-0.127,0.184-0.12,0.269c0.05,0.488,0.146,0.972,0.183,1.462C170.368,742.643,170.342,743.06,170.342,743.509z"/>
	<path fill="#3898D2" d="M55.638,779.222l-2.088,2.092v0.348c0,0.381-0.061,0.748-0.149,1.102c-0.049,2.874-0.964,6.685-4.723,9.688
		c-7.393,5.916-15.315,0.698-15.315,0.698c6.265,0,6.265-2.091,6.265-2.091c-1.392,0-4.176-2.782-4.176-2.782
		c0.695,0.691,2.087,0,2.087,0c-3.481-2.091-3.481-4.182-3.481-4.182c0.697,0.696,2.088,0,2.088,0
		c-3.48-2.782-1.392-6.268-1.392-6.268c0.697,3.479,9.746,4.874,9.746,4.874l0.115-0.059c-0.07-0.319-0.115-0.995-0.115-1.338
		c0-2.497,2.026-4.178,4.525-4.178c1.375,0,2.593,0.629,3.421,1.592l0.407-0.201l2.089-1.396l-1.394,2.784L55.638,779.222z"/>
	<path fill="#445896" d="M19.496,775.902h-3.148c0,0-4.969-0.408-4.969,4.473v2.861H9.175l0.009,3.006h2.233l0.049,10.27h4.438
		v-10.27h2.933l0.625-3.006h-3.596v-2.397c0,0-0.037-1.281,1.546-1.281h2.053L19.496,775.902z"/>
	<path fill="#D44B42" d="M87.669,778.709c-0.747,0.01-1.494,0.005-2.241,0.004c-0.101,0-0.203-0.014-0.336-0.02v-2.817h-1.397v0.325
		c0,0.73-0.009,1.455,0.005,2.188c0.004,0.245-0.06,0.335-0.317,0.329c-0.737-0.021-1.476-0.006-2.214-0.005
		c-0.101,0.001-0.204,0.009-0.313,0.015v1.395h2.853v2.804h1.389v-2.816h2.823c0-0.401-0.011-0.775,0.005-1.148
		C87.933,778.757,87.858,778.706,87.669,778.709 M76.978,787.321c-0.385-0.34-0.791-0.655-1.126-1.038
		c-0.497-0.57-0.491-1.115,0.006-1.686c0.311-0.355,0.685-0.661,1.048-0.97c1.166-1,1.792-2.212,1.571-3.782
		c-0.153-1.104-0.577-2.054-1.514-2.717c-0.039-0.023-0.071-0.063-0.162-0.144c0.517,0,0.964,0.004,1.41-0.003
		c0.08-0.003,0.188,0.252,0.237,0.201c0.429-0.431,0.844-1.11,1.318-1.11h-0.396c-1.876,0-3.754-0.268-5.63-0.253
		c-0.553,0.007-1.112-0.076-1.655,0.016c-1.149,0.192-2.177,0.591-2.983,1.457c-1.069,1.152-1.397,2.494-1.153,4.021
		c0.22,1.369,0.942,2.389,2.165,3.056c0.831,0.452,1.733,0.64,2.677,0.656c0.098,0.002,0.195,0.021,0.299,0.029
		c-0.398,1.49-0.396,1.511,0.512,2.771c-0.055,0.014-0.104,0.023-0.153,0.026c-0.103,0.011-0.207,0.02-0.311,0.022
		c-1.116,0.023-2.217,0.149-3.283,0.486c-1.073,0.34-2.03,0.859-2.69,1.812c-0.893,1.284-1.061,3.393,0.401,4.706
		c0.68,0.611,1.469,1.014,2.331,1.278c1.527,0.474,3.09,0.543,4.664,0.355c1.203-0.139,2.339-0.485,3.355-1.174
		c2.504-1.695,2.495-4.804,0.771-6.546C78.161,788.262,77.544,787.815,76.978,787.321 M73.155,784.067
		c-1.01-0.255-1.762-0.858-2.28-1.733c-0.816-1.386-1.041-2.85-0.371-4.356c0.621-1.396,2.141-1.835,3.447-1.026
		c0.98,0.608,1.549,1.537,1.871,2.609c0.17,0.568,0.236,1.164,0.338,1.695c-0.077,0.456-0.108,0.85-0.215,1.22
		C75.57,783.764,74.458,784.393,73.155,784.067 M77.613,793.095c-0.361,1.092-1.195,1.685-2.235,2.045
		c-0.722,0.246-1.469,0.338-2.139,0.332c-1.151,0.018-2.14-0.222-3.015-0.844c-1.896-1.347-1.929-3.647-0.065-5.032
		c1.018-0.755,2.178-1.048,3.431-1.006c0.954,0.033,1.851,0.263,2.654,0.804C77.521,790.257,78.07,791.709,77.613,793.095"/>
	<g>
		<path fill="#007BB6" d="M98.75,776.883c1.014-0.098,1.814,0.411,2.122,0.917c0.617,1.019,0.166,2.304-0.603,2.77
			c-1.534,0.936-3.646-0.025-3.472-1.927c0.056-0.591,0.262-0.879,0.53-1.156C97.623,777.18,98.097,776.942,98.75,776.883z"/>
		<path fill="#007BB6" d="M114.874,794.14c-1.293,0-2.585,0-3.88,0c0-1.419,0-2.956,0-4.463c0-1.953,0.155-3.76-1.207-4.286
			c-1.215-0.478-2.464,0.354-2.771,1.374c-0.153,0.504-0.097,1.145-0.097,1.782c0,1.854,0,3.76,0,5.593c-1.292,0-2.587,0-3.88,0
			c0.008-3.868,0.062-7.809,0-11.665c1.293,0,2.588,0,3.88,0c0,0.542,0,1.077,0,1.614c0.662-0.946,1.576-1.768,3.109-1.875
			c2.791-0.208,4.273,1.466,4.7,3.688c0.23,1.201,0.144,2.607,0.144,4.046C114.874,791.353,114.874,792.78,114.874,794.14z"/>
		<path fill="#007BB6" d="M97.064,782.473c1.277,0,2.555,0,3.832,0c0.056,3.84,0.008,7.785,0.024,11.665c-1.302,0-2.604,0-3.904,0
			c0-3.865,0-7.732,0-11.594C97.015,782.506,97.033,782.48,97.064,782.473z"/>
	</g>
	<path fill="#3898D2" d="M37.363,806.431l-1.392,1.395v0.231c0,0.254-0.04,0.498-0.1,0.734c-0.033,1.915-0.643,4.455-3.147,6.457
		c-4.928,3.943-10.208,0.466-10.208,0.466c4.176,0,4.176-1.394,4.176-1.394c-0.928,0-2.784-1.854-2.784-1.854
		c0.463,0.461,1.392,0,1.392,0c-2.32-1.394-2.32-2.787-2.32-2.787c0.464,0.464,1.392,0,1.392,0c-2.32-1.854-0.928-4.178-0.928-4.178
		c0.464,2.318,6.496,3.249,6.496,3.249l0.076-0.039c-0.047-0.213-0.076-0.664-0.076-0.892c0-1.665,1.351-2.785,3.016-2.785
		c0.917,0,1.729,0.419,2.281,1.062l0.271-0.135l1.392-0.93l-0.929,1.855L37.363,806.431z"/>
	<path fill="#445896" d="M12.797,804.218h-2.099c0,0-3.312-0.271-3.312,2.981v1.907H5.917l0.006,2.004h1.488l0.033,6.845h2.958
		v-6.845h1.955l0.417-2.004h-2.397v-1.598c0,0-0.024-0.854,1.03-0.854h1.369L12.797,804.218z"/>
	<path fill="#D44B42" d="M58.268,806.089c-0.498,0.007-0.996,0.003-1.494,0.003c-0.067,0-0.135-0.01-0.224-0.014V804.2h-0.931v0.217
		c0,0.487-0.006,0.97,0.003,1.459c0.002,0.163-0.04,0.224-0.212,0.22c-0.491-0.014-0.983-0.004-1.476-0.004
		c-0.067,0.001-0.136,0.006-0.208,0.01v0.93h1.901v1.869h0.925v-1.878h1.882c0-0.268-0.007-0.517,0.003-0.765
		C58.443,806.121,58.394,806.087,58.268,806.089 M51.142,811.829c-0.256-0.227-0.527-0.437-0.75-0.691
		c-0.332-0.381-0.328-0.744,0.004-1.124c0.207-0.236,0.456-0.44,0.698-0.646c0.777-0.666,1.195-1.474,1.047-2.521
		c-0.102-0.736-0.385-1.369-1.009-1.812c-0.026-0.016-0.047-0.042-0.108-0.096c0.344,0,0.642,0.003,0.94-0.002
		c0.053-0.002,0.125,0.168,0.158,0.135c0.286-0.287,0.562-0.74,0.878-0.74h-0.264c-1.25,0-2.502-0.179-3.752-0.169
		c-0.369,0.005-0.741-0.051-1.104,0.011c-0.766,0.128-1.451,0.394-1.988,0.971c-0.713,0.769-0.932,1.663-0.769,2.681
		c0.146,0.912,0.628,1.592,1.443,2.036c0.554,0.302,1.155,0.427,1.784,0.438c0.065,0.001,0.13,0.015,0.199,0.02
		c-0.266,0.993-0.264,1.007,0.341,1.848c-0.036,0.009-0.069,0.016-0.102,0.018c-0.068,0.007-0.138,0.013-0.207,0.015
		c-0.744,0.016-1.478,0.1-2.188,0.324c-0.715,0.227-1.353,0.572-1.793,1.207c-0.595,0.856-0.707,2.262,0.268,3.137
		c0.453,0.408,0.979,0.676,1.554,0.853c1.018,0.315,2.059,0.361,3.108,0.236c0.802-0.092,1.559-0.323,2.237-0.782
		c1.669-1.13,1.663-3.201,0.514-4.362C51.93,812.456,51.519,812.158,51.142,811.829 M48.593,809.66
		c-0.673-0.17-1.174-0.572-1.52-1.155c-0.544-0.924-0.694-1.899-0.247-2.903c0.414-0.931,1.427-1.224,2.298-0.685
		c0.653,0.405,1.032,1.024,1.247,1.739c0.113,0.379,0.157,0.776,0.225,1.13c-0.051,0.304-0.072,0.566-0.143,0.813
		C50.203,809.458,49.462,809.877,48.593,809.66 M51.565,815.678c-0.241,0.728-0.797,1.122-1.49,1.362
		c-0.481,0.164-0.979,0.226-1.425,0.222c-0.768,0.012-1.426-0.147-2.009-0.563c-1.264-0.897-1.286-2.431-0.044-3.354
		c0.678-0.503,1.452-0.698,2.287-0.67c0.636,0.022,1.233,0.175,1.77,0.535C51.503,813.786,51.869,814.754,51.565,815.678"/>
	<g>
		<path fill="#007BB6" d="M65.653,804.871c0.676-0.064,1.209,0.274,1.415,0.611c0.412,0.68,0.111,1.536-0.401,1.847
			c-1.023,0.623-2.431-0.018-2.314-1.284c0.037-0.395,0.174-0.586,0.353-0.771C64.902,805.069,65.218,804.911,65.653,804.871z"/>
		<path fill="#007BB6" d="M76.4,816.374c-0.862,0-1.723,0-2.586,0c0-0.946,0-1.971,0-2.975c0-1.302,0.104-2.506-0.804-2.857
			c-0.81-0.318-1.643,0.236-1.847,0.916c-0.103,0.336-0.064,0.763-0.064,1.188c0,1.235,0,2.506,0,3.728c-0.861,0-1.725,0-2.586,0
			c0.005-2.578,0.041-5.205,0-7.775c0.861,0,1.725,0,2.586,0c0,0.361,0,0.718,0,1.076c0.441-0.631,1.05-1.179,2.072-1.25
			c1.86-0.139,2.849,0.978,3.133,2.458c0.154,0.801,0.096,1.738,0.096,2.696C76.4,814.516,76.4,815.468,76.4,816.374z"/>
		<path fill="#007BB6" d="M64.529,808.598c0.852,0,1.703,0,2.554,0c0.037,2.56,0.005,5.188,0.017,7.774c-0.868,0-1.735,0-2.603,0
			c0-2.576,0-5.153,0-7.728C64.497,808.619,64.509,808.603,64.529,808.598z"/>
	</g>
	<path fill="#2D2A2D" d="M278.487,14.711L273,8.5l-5.487,6.211l1.535,1.763L273,12l3.953,4.474L278.487,14.711z"/>
	<path fill="#2D2A2D" d="M25.349,840.506c-6.981,0-12.64,5.641-12.64,12.6c0,3.312,1.292,6.313,3.388,8.564l-7.088,6.928
		l1.902,1.896l7.217-7.059c2.049,1.426,4.535,2.267,7.221,2.267c6.982,0,12.642-5.641,12.642-12.599
		C37.991,846.146,32.332,840.506,25.349,840.506z M25.349,862.901c-5.434,0-9.855-4.395-9.855-9.798
		c0-5.402,4.422-9.797,9.855-9.797c5.435,0,9.857,4.395,9.857,9.797C35.207,858.507,30.785,862.901,25.349,862.901z"/>
	<g>
		<line fill="none" stroke="#40BBE1" stroke-miterlimit="10" x1="238" y1="815.5" x2="297" y2="815.5"/>
		<polyline fill="none" stroke="#40BBE1" stroke-miterlimit="10" points="283.638,802.055 297.25,815.5 283.638,828.945 		"/>
	</g>
	<g>
		<line fill="none" stroke="#BC348B" stroke-miterlimit="10" x1="290" y1="845.5" x2="231" y2="845.5"/>
		<polyline fill="none" stroke="#BC348B" stroke-miterlimit="10" points="244.612,832.055 231,845.5 244.612,858.945 		"/>
	</g>
	<g>
		<polyline fill="none" stroke="#40BBE1" stroke-width="3" stroke-miterlimit="10" points="293.612,864.055 282,875.5 
			293.612,886.945 		"/>
	</g>
	<g>
		<polyline fill="none" stroke="#BC348B" stroke-width="3" stroke-miterlimit="10" points="284.638,894.055 296.25,905.5 
			284.638,916.945 		"/>
	</g>
	<g>
		<line fill="none" stroke="#BC348B" stroke-width="3" stroke-miterlimit="10" x1="123.417" y1="34.5" x2="144.584" y2="55.667"/>
		<line fill="none" stroke="#BC348B" stroke-width="3" stroke-miterlimit="10" x1="144.584" y1="34.5" x2="123.417" y2="55.667"/>
	</g>
	<g>
		<line fill="none" stroke="#40BBE1" stroke-width="3" stroke-miterlimit="10" x1="34.417" y1="34.5" x2="55.584" y2="55.667"/>
		<line fill="none" stroke="#40BBE1" stroke-width="3" stroke-miterlimit="10" x1="55.584" y1="34.5" x2="34.417" y2="55.667"/>
	</g>
</g>
</svg>
